<svg width="49" height="50" viewBox="0 0 49 50" fill="none" xmlns="http://www.w3.org/2000/svg">
<path d="M38.5575 15.3015L22.8874 6.44441L21.8068 12.1514L16.5713 21.4142L3.99992 25.6346L31.8579 41.3805L28.8221 28.3386L34.0576 19.0758L38.5575 15.3015Z" stroke="black" stroke-width="3"/>
<path fill-rule="evenodd" clip-rule="evenodd" d="M23 7L22 12L16.5 21L4 25.5L31.5 41L28.5 29L33 20L39 15.5L23 7ZM24.9864 14.1644L25.4864 11.1644L23.5136 10.8356L23.042 13.6653L18.1258 22.5144L19.8742 23.4856L24.8742 14.4856L24.958 14.3347L24.9864 14.1644Z" fill="black"/>
<path d="M15.5 37L10 46.5" stroke="black" stroke-width="3"/>
</svg>
